<svg width="313" height="84" viewBox="0 0 313 84" fill="none" xmlns="http://www.w3.org/2000/svg">
<rect width="313" height="84" fill="white"/>
<rect width="313" height="84" fill="#341B07"/>
<path d="M70.0087 42.5187C70.1087 58.6187 57.3087 72.6187 40.1087 73.0187C22.7087 73.3187 9.40873 59.5187 9.00873 43.3187C8.60873 26.3187 22.0087 12.6187 38.4087 12.0187C55.7087 11.4187 70.1087 25.3187 70.0087 42.5187ZM52.4087 44.4187C52.4087 41.7187 52.4087 38.9187 52.4087 36.2187C52.4087 36.0187 52.4087 35.7187 52.4087 35.5187C52.3087 34.8187 51.9087 34.3187 51.2087 34.2187C50.9087 34.2187 50.7087 34.2187 50.4087 34.2187C43.8087 34.2187 37.1087 34.2187 30.5087 34.2187C30.2087 34.2187 29.9087 34.2187 29.6087 34.3187C29.0087 34.4187 28.7087 34.8187 28.5087 35.3187C28.5087 35.6187 28.5087 35.8187 28.5087 36.1187C28.5087 37.2187 28.5087 38.2187 28.5087 39.3187C28.5087 39.7187 28.4087 39.9187 28.0087 39.8187C27.3087 39.8187 26.7087 39.8187 26.0087 39.8187C23.2087 39.9187 21.0087 42.1187 20.9087 44.8187C20.9087 45.6187 20.9087 46.3187 20.9087 47.1187C21.0087 49.7187 22.8087 51.8187 25.3087 52.2187C26.2087 52.3187 27.0087 52.3187 27.9087 52.3187C28.4087 52.3187 28.5087 52.3187 28.5087 52.9187C28.5087 53.5187 28.6087 54.0187 28.8087 54.6187C29.9087 56.9187 31.6087 58.0187 34.1087 58.0187C37.0087 58.0187 39.9087 58.0187 42.8087 58.0187C44.2087 58.0187 45.6087 58.0187 47.0087 58.0187C48.0087 58.0187 48.9087 57.8187 49.8087 57.3187C51.5087 56.3187 52.4087 54.8187 52.4087 52.9187C52.5087 50.1187 52.4087 47.2187 52.4087 44.4187ZM33.3087 29.9187C33.3087 30.9187 33.3087 31.8187 33.3087 32.8187C33.3087 33.2187 33.4087 33.4187 33.8087 33.4187C34.5087 33.4187 35.1087 33.4187 35.8087 33.4187C36.2087 33.4187 36.3087 33.3187 36.3087 32.9187C36.3087 31.0187 36.3087 29.0187 36.3087 27.1187C36.3087 26.8187 36.2087 26.6187 35.9087 26.6187C35.2087 26.6187 34.5087 26.6187 33.9087 26.6187C33.5087 26.6187 33.4087 26.7187 33.4087 27.1187C33.3087 28.0187 33.3087 28.9187 33.3087 29.9187ZM39.0087 29.9187C39.0087 30.9187 39.0087 31.8187 39.0087 32.8187C39.0087 33.2187 39.1087 33.4187 39.5087 33.4187C40.2087 33.4187 40.8087 33.4187 41.5087 33.4187C41.9087 33.4187 42.0087 33.3187 42.0087 32.9187C42.0087 31.0187 42.0087 29.0187 42.0087 27.1187C42.0087 26.7187 41.8087 26.6187 41.5087 26.6187C40.8087 26.6187 40.2087 26.6187 39.5087 26.6187C39.1087 26.6187 39.0087 26.7187 39.0087 27.1187C39.0087 28.0187 39.0087 28.9187 39.0087 29.9187ZM44.7087 30.0187C44.7087 30.9187 44.7087 31.9187 44.7087 32.8187C44.7087 33.2187 44.8087 33.4187 45.2087 33.4187C45.9087 33.4187 46.5087 33.4187 47.2087 33.4187C47.6087 33.4187 47.7087 33.3187 47.7087 32.9187C47.7087 31.0187 47.7087 29.0187 47.7087 27.1187C47.7087 26.7187 47.5087 26.6187 47.2087 26.6187C46.5087 26.6187 45.9087 26.6187 45.2087 26.6187C44.8087 26.6187 44.7087 26.7187 44.7087 27.1187C44.7087 28.0187 44.7087 29.0187 44.7087 30.0187Z" fill="#E4AC23"/>
<path d="M52.4087 44.4187C52.4087 47.2187 52.4087 50.0187 52.4087 52.8187C52.4087 54.7187 51.4087 56.2187 49.8087 57.2187C49.0087 57.7187 48.0087 57.9187 47.0087 57.9187C45.6087 57.9187 44.2087 57.9187 42.8087 57.9187C39.9087 57.9187 37.0087 57.9187 34.1087 57.9187C31.6087 57.9187 29.9087 56.8187 28.8087 54.5187C28.5087 53.9187 28.5087 53.4187 28.5087 52.8187C28.5087 52.2187 28.5087 52.2187 27.9087 52.2187C27.0087 52.2187 26.2087 52.2187 25.3087 52.1187C22.7087 51.7187 20.9087 49.6187 20.9087 47.0187C20.9087 46.2187 20.9087 45.5187 20.9087 44.7187C21.0087 42.0187 23.2087 39.7187 26.0087 39.7187C26.7087 39.7187 27.3087 39.7187 28.0087 39.7187C28.4087 39.7187 28.5087 39.5187 28.5087 39.2187C28.5087 38.1187 28.5087 37.1187 28.5087 36.0187C28.5087 35.7187 28.5087 35.4187 28.6087 35.1187C28.8087 34.5187 29.1087 34.2187 29.7087 34.1187C30.0087 34.0187 30.3087 34.0187 30.6087 34.0187C37.2087 34.0187 43.9087 34.0187 50.5087 34.0187C50.8087 34.0187 51.0087 34.0187 51.3087 34.0187C52.0087 34.1187 52.4087 34.6187 52.5087 35.3187C52.5087 35.5187 52.5087 35.8187 52.5087 36.0187C52.4087 39.0187 52.4087 41.7187 52.4087 44.4187ZM40.5087 37.1187C37.8087 37.1187 35.0087 37.1187 32.3087 37.1187C31.5087 37.1187 31.5087 37.1187 31.5087 37.9187C31.5087 38.1187 31.5087 38.2187 31.5087 38.4187C31.5087 42.6187 31.5087 46.7187 31.5087 50.9187C31.5087 51.5187 31.5087 52.2187 31.5087 52.8187C31.6087 54.2187 32.5087 55.1187 33.9087 55.1187C38.3087 55.1187 42.7087 55.1187 47.1087 55.1187C48.5087 55.1187 49.4087 54.1187 49.4087 52.7187C49.4087 47.7187 49.4087 42.8187 49.4087 37.8187C49.4087 37.2187 49.4087 37.2187 48.8087 37.2187C48.6087 37.2187 48.4087 37.2187 48.3087 37.2187C45.7087 37.1187 43.1087 37.1187 40.5087 37.1187ZM28.5087 46.1187C28.5087 45.2187 28.5087 44.2187 28.5087 43.3187C28.5087 43.0187 28.4087 42.8187 28.1087 42.8187C27.4087 42.8187 26.7087 42.8187 26.0087 42.8187C24.8087 42.9187 24.0087 43.8187 23.9087 45.0187C23.9087 45.7187 23.9087 46.4187 23.9087 47.0187C23.9087 48.4187 24.9087 49.3187 26.2087 49.3187C26.8087 49.3187 27.3087 49.3187 27.9087 49.3187C28.4087 49.3187 28.5087 49.3187 28.5087 48.7187C28.5087 47.9187 28.5087 47.0187 28.5087 46.1187Z" fill="#341B07"/>
<path d="M33.309 29.9187C33.309 29.0187 33.309 28.0187 33.309 27.1187C33.309 26.7187 33.409 26.6187 33.809 26.6187C34.509 26.6187 35.209 26.6187 35.809 26.6187C36.109 26.6187 36.209 26.8187 36.209 27.1187C36.209 29.0187 36.209 31.0187 36.209 32.9187C36.209 33.3187 36.109 33.4187 35.709 33.4187C35.009 33.4187 34.409 33.4187 33.709 33.4187C33.309 33.4187 33.209 33.2187 33.209 32.8187C33.309 31.8187 33.309 30.8187 33.309 29.9187Z" fill="#341B07"/>
<path d="M39.0088 29.9187C39.0088 29.0187 39.0088 28.0187 39.0088 27.1187C39.0088 26.7187 39.1088 26.6187 39.5088 26.6187C40.2088 26.6187 40.8088 26.6187 41.5088 26.6187C41.9088 26.6187 42.0088 26.7187 42.0088 27.1187C42.0088 29.0187 42.0088 31.0187 42.0088 32.9187C42.0088 33.3187 41.9088 33.4187 41.5088 33.4187C40.8088 33.4187 40.2088 33.4187 39.5088 33.4187C39.1088 33.4187 39.0088 33.2187 39.0088 32.8187C39.0088 31.8187 39.0088 30.8187 39.0088 29.9187Z" fill="#341B07"/>
<path d="M44.709 30.0187C44.709 29.0187 44.709 28.1187 44.709 27.1187C44.709 26.7187 44.809 26.6187 45.209 26.6187C45.909 26.6187 46.509 26.6187 47.209 26.6187C47.509 26.6187 47.709 26.7187 47.709 27.1187C47.709 29.0187 47.709 31.0187 47.709 32.9187C47.709 33.3187 47.609 33.4187 47.209 33.4187C46.509 33.4187 45.909 33.4187 45.209 33.4187C44.809 33.4187 44.709 33.2187 44.709 32.8187C44.709 31.8187 44.709 30.9187 44.709 30.0187Z" fill="#341B07"/>
<path d="M40.5088 37.1187C43.1088 37.1187 45.7088 37.1187 48.3088 37.1187C48.5088 37.1187 48.7088 37.1187 48.8088 37.1187C49.4088 37.1187 49.4088 37.1187 49.4088 37.7187C49.4088 42.7187 49.4088 47.6187 49.4088 52.6187C49.4088 54.0187 48.5088 55.0187 47.1088 55.0187C42.7088 55.0187 38.3088 55.0187 33.9088 55.0187C32.5088 55.0187 31.6088 54.1187 31.5088 52.7187C31.5088 52.1187 31.5088 51.5187 31.5088 50.8187C31.5088 46.6187 31.5088 42.5187 31.5088 38.3187C31.5088 38.1187 31.5088 38.0187 31.5088 37.8187C31.5088 37.0187 31.5088 37.0187 32.3088 37.0187C35.0088 37.1187 37.7088 37.1187 40.5088 37.1187Z" fill="#E4AC23"/>
<path d="M28.5087 46.1187C28.5087 47.0187 28.5087 47.9187 28.5087 48.8187C28.5087 49.4187 28.5087 49.4187 27.9087 49.4187C27.3087 49.4187 26.8087 49.4187 26.2087 49.4187C24.8087 49.3187 23.9087 48.4187 23.9087 47.1187C23.9087 46.4187 23.9087 45.7187 23.9087 45.1187C24.0087 43.9187 24.8087 43.0187 26.0087 42.9187C26.7087 42.8187 27.4087 42.9187 28.1087 42.9187C28.5087 42.9187 28.5087 43.1187 28.5087 43.4187C28.5087 44.3187 28.5087 45.2187 28.5087 46.1187Z" fill="#E4AC23"/>
<path d="M201.274 25.589C201.274 25.189 201.274 24.889 201.274 24.589C201.274 20.089 201.274 15.589 201.274 11.089C201.274 10.189 201.174 10.189 202.074 10.189C203.574 10.189 204.974 10.189 206.474 10.189C207.274 10.189 207.274 10.189 207.274 10.989C207.274 12.389 207.274 13.689 207.274 15.089C207.274 21.589 207.274 27.989 207.274 34.489C207.274 35.589 207.374 35.389 206.374 35.389C205.074 35.389 203.674 35.389 202.374 35.389C201.774 35.389 201.474 35.289 201.174 34.789C197.674 30.089 194.174 25.489 190.674 20.789C190.474 20.589 190.374 20.289 190.074 20.089C189.874 20.389 189.974 20.589 189.974 20.889C189.974 25.389 189.974 29.989 189.974 34.489C189.974 35.489 190.074 35.389 189.074 35.389C187.574 35.389 186.074 35.389 184.574 35.389C183.974 35.389 183.974 35.389 183.974 34.789C183.974 34.589 183.974 34.489 183.974 34.289C183.974 26.589 183.974 18.889 183.974 11.189C183.974 10.989 183.974 10.789 183.974 10.689C183.874 10.289 184.174 10.189 184.474 10.189C185.974 10.189 187.574 10.189 189.074 10.189C189.574 10.189 189.774 10.489 189.974 10.789C192.474 14.189 194.974 17.489 197.474 20.889C198.474 22.289 199.574 23.689 200.574 24.989C200.874 25.289 200.974 25.489 201.274 25.589Z" fill="#CCC8B2"/>
<path d="M145.774 20.189C145.774 20.589 145.774 20.789 145.774 21.089C145.774 25.589 145.774 29.989 145.774 34.489C145.774 34.689 145.774 34.889 145.774 34.989C145.774 35.389 145.574 35.489 145.274 35.489C143.674 35.489 141.974 35.489 140.374 35.489C139.974 35.489 139.774 35.389 139.874 34.989C139.874 34.889 139.874 34.689 139.874 34.589C139.874 26.789 139.874 18.989 139.874 11.189C139.874 10.189 139.774 10.289 140.774 10.289C142.074 10.289 143.474 10.289 144.774 10.289C145.374 10.289 145.674 10.489 145.974 10.889C149.374 15.489 152.774 19.989 156.274 24.589C156.474 24.889 156.774 25.289 157.074 25.589C157.274 25.289 157.174 24.989 157.174 24.689C157.174 20.189 157.174 15.689 157.174 11.289C157.174 11.089 157.174 10.889 157.174 10.689C157.174 10.389 157.274 10.289 157.574 10.289C159.274 10.289 160.974 10.289 162.774 10.289C163.074 10.289 163.174 10.389 163.174 10.689C163.174 10.889 163.174 11.089 163.174 11.189C163.174 18.989 163.174 26.689 163.174 34.489C163.174 34.689 163.174 34.789 163.174 34.989C163.174 35.389 163.074 35.489 162.674 35.489C161.074 35.489 159.474 35.489 157.874 35.489C157.474 35.489 157.274 35.289 157.174 34.989C155.474 32.789 153.874 30.489 152.174 28.289C150.274 25.789 148.374 23.289 146.474 20.689C146.274 20.589 146.174 20.389 145.774 20.189Z" fill="#CCC8B2"/>
<path d="M243.374 22.689C243.374 17.589 246.374 13.089 251.174 11.189C255.774 9.38896 260.274 9.58896 264.574 12.089C267.974 14.089 269.974 16.989 270.474 20.889C271.074 25.189 269.874 28.889 266.874 31.889C264.774 33.889 262.274 35.089 259.374 35.489C256.574 35.889 253.874 35.689 251.274 34.589C246.274 32.589 243.374 28.089 243.374 22.689ZM257.074 15.489C255.574 15.489 254.274 15.889 253.074 16.689C249.374 19.289 248.874 24.689 251.874 28.089C255.174 31.689 260.874 30.989 263.174 26.689C264.374 24.389 264.374 22.089 263.474 19.789C262.274 16.989 259.874 15.489 257.074 15.489Z" fill="#CCC8B2"/>
<path d="M237.774 22.889C237.774 26.789 237.774 30.689 237.774 34.589C237.774 35.689 237.874 35.489 236.774 35.489C235.174 35.489 233.674 35.489 232.074 35.489C231.374 35.489 231.274 35.489 231.274 34.689C231.274 32.089 231.274 29.389 231.274 26.789C231.274 26.689 231.274 26.489 231.274 26.389C231.274 25.689 231.274 25.689 230.574 25.689C228.674 25.689 226.774 25.689 224.874 25.689C223.774 25.689 222.674 25.689 221.474 25.689C220.874 25.689 220.874 25.689 220.874 26.389C220.874 29.189 220.874 31.889 220.874 34.689C220.874 35.589 220.974 35.589 220.074 35.589C218.474 35.589 216.874 35.589 215.274 35.589C214.374 35.589 214.474 35.689 214.474 34.689C214.474 28.889 214.474 22.989 214.474 17.189C214.474 15.189 214.474 13.089 214.474 11.089C214.474 10.289 214.474 10.389 215.274 10.389C216.874 10.389 218.474 10.389 220.174 10.389C221.074 10.389 220.974 10.389 220.974 11.189C220.974 14.089 220.974 16.989 220.974 19.889C220.974 20.889 220.974 20.689 221.774 20.789C224.674 20.789 227.574 20.789 230.574 20.789C230.774 20.789 230.874 20.789 231.074 20.789C231.374 20.789 231.474 20.689 231.474 20.389C231.474 20.189 231.474 19.989 231.474 19.789C231.474 16.989 231.474 14.189 231.474 11.389C231.474 11.189 231.474 10.989 231.474 10.789C231.474 10.489 231.574 10.389 231.874 10.389C231.974 10.389 232.074 10.389 232.074 10.389C233.774 10.389 235.474 10.389 237.274 10.389C237.874 10.389 237.874 10.389 237.874 11.089C237.774 14.889 237.774 18.889 237.774 22.889Z" fill="#CCC8B2"/>
<path d="M196.474 58.8C196.474 55.9 196.474 53.4 196.474 50.9C196.474 50 196.374 50 197.374 50C198.874 50 200.374 50 201.874 50C203.074 50 202.974 49.8 202.974 51C202.974 55.3 202.974 59.6 202.974 64C202.974 64.5 202.974 65 203.074 65.5C203.374 68.4 205.474 70.2 208.374 70.1C211.074 70 213.074 68.3 213.274 65.5C213.274 65 213.374 64.5001 213.374 63.9001C213.374 59.6 213.374 55.4 213.374 51.1C213.374 50.9 213.374 50.7 213.374 50.6C213.374 50 213.374 50 213.974 50C215.674 50 217.374 50 219.174 50C219.774 50 219.774 50 219.774 50.5C219.774 55.4 219.874 60.4 219.774 65.3C219.674 69.7 217.274 73.1 213.174 74.6C212.374 74.9 211.674 75.1001 210.874 75.2001C208.374 75.6001 205.974 75.5001 203.574 74.7001C199.574 73.4001 197.074 70.1 196.674 66C196.374 63.5 196.574 60.9 196.474 58.8Z" fill="#CCC8B2"/>
<path d="M132.974 18.489C132.974 20.589 132.974 22.6889 132.974 24.7889C132.974 26.6889 132.674 28.489 131.774 30.189C130.474 32.689 128.474 34.2889 125.874 35.0889C122.874 35.9889 119.774 35.989 116.674 34.989C112.674 33.589 110.074 30.289 109.774 25.989C109.674 24.789 109.674 23.5889 109.674 22.2889C109.674 18.6889 109.674 14.9889 109.674 11.3889C109.674 11.1889 109.674 11.0889 109.674 10.8889C109.674 10.1889 109.674 10.1889 110.374 10.1889C112.074 10.1889 113.674 10.1889 115.374 10.1889C116.074 10.1889 116.074 10.1889 116.074 10.8889C116.074 15.189 116.074 19.389 116.074 23.689C116.074 24.589 116.074 25.4889 116.274 26.3889C116.874 28.7889 118.874 30.289 121.274 30.189C124.174 30.089 125.974 28.4889 126.274 25.5889C126.374 25.0889 126.374 24.5889 126.374 24.0889C126.374 19.7889 126.374 15.4889 126.374 11.0889C126.374 10.8889 126.374 10.689 126.374 10.489C126.374 10.189 126.474 10.0889 126.774 10.0889C128.674 10.0889 130.474 10.0889 132.374 10.0889C132.774 10.0889 132.774 10.2889 132.774 10.5889C132.774 11.6889 132.774 12.889 132.774 13.989C132.974 15.689 132.974 17.089 132.974 18.489Z" fill="#CCC8B2"/>
<path d="M274.174 75.1001C273.974 75.2001 273.674 75.2001 273.474 75.2001C271.774 75.2001 269.974 75.2001 268.274 75.2001C267.374 75.2001 267.574 75.3001 267.174 74.4001C266.674 73.3001 266.274 72.1001 265.874 71.0001C265.774 70.7001 265.574 70.5001 265.174 70.5001C261.874 70.5001 258.474 70.5001 255.174 70.5001C254.774 70.5001 254.574 70.7001 254.474 71.0001C254.074 72.2001 253.574 73.4001 253.074 74.6001C252.874 75.0001 252.674 75.2001 252.274 75.2001C250.274 75.2001 248.374 75.2001 246.474 75.2001C246.374 74.9001 246.474 74.8001 246.574 74.6001C250.074 66.6001 253.474 58.6001 256.974 50.6001C257.174 50.2001 257.374 50.0001 257.874 50.0001C259.574 50.0001 261.274 50.0001 263.074 50.0001C264.074 50.0001 263.874 49.9001 264.174 50.7001C266.874 57.1001 269.574 63.6001 272.374 70.0001C272.974 71.4001 273.574 72.9001 274.174 74.3001C274.074 74.6001 274.174 74.9001 274.174 75.1001ZM263.774 65.7001C262.574 62.6001 261.374 59.6001 260.174 56.4001C258.874 59.6001 257.774 62.6001 256.474 65.7001C258.874 65.7001 261.274 65.7001 263.774 65.7001Z" fill="#CCC8B2"/>
<path d="M140.174 75.2C138.074 75.2 135.974 75.2 133.874 75.2C133.474 75.2 133.374 75 133.274 74.7C132.774 73.5 132.274 72.3 131.874 71.1C131.674 70.7 131.474 70.5 130.974 70.5C127.674 70.5 124.474 70.5 121.174 70.5C120.674 70.5 120.474 70.6 120.274 71.1C119.874 72.3 119.274 73.5 118.874 74.7C118.774 75 118.674 75.2 118.274 75.2C116.274 75.2 114.274 75.2 112.274 75.2C112.174 74.9 112.274 74.7 112.374 74.5C115.774 66.5 119.274 58.5 122.674 50.6C122.874 50.1 123.074 50 123.574 50C125.374 50 127.074 50 128.874 50C129.374 50 129.574 50.1 129.774 50.6C133.174 58.6 136.574 66.6 139.874 74.6C140.174 74.8 140.274 74.9 140.174 75.2ZM122.574 65.6C124.974 65.6 127.374 65.6 129.774 65.6C128.574 62.5 127.374 59.5 126.174 56.3C124.974 59.6 123.774 62.6 122.574 65.6Z" fill="#CCC8B2"/>
<path d="M279.474 66.5001C281.074 67.8001 282.874 68.8001 284.874 69.5001C286.174 70.0001 287.574 70.3001 288.974 70.2001C289.574 70.2001 290.074 70.1001 290.574 69.8001C291.974 69.2001 292.274 67.6001 291.174 66.5001C290.574 66.0001 289.874 65.7001 289.174 65.4001C287.874 65.0001 286.674 64.7001 285.374 64.3001C284.274 64.0001 283.174 63.6001 282.074 63.0001C277.174 60.6001 277.574 54.1001 281.274 51.6001C282.674 50.6001 284.174 50.1001 285.774 49.8001C289.974 49.2001 293.974 49.9001 297.674 51.9001C297.774 52.0001 297.874 52.0001 297.974 52.1001C298.274 52.2001 298.374 52.4001 298.174 52.8001C297.474 54.2001 296.774 55.6001 296.174 56.9001C295.974 57.2001 295.874 57.3001 295.474 57.1001C294.174 56.4001 292.874 55.8001 291.574 55.4001C290.574 55.1001 289.574 54.9001 288.574 54.7001C287.874 54.6001 287.174 54.6001 286.574 54.8001C285.874 55.0001 285.374 55.4001 285.174 56.1001C285.074 56.9001 285.374 57.5001 285.874 58.0001C286.474 58.5001 287.074 58.8001 287.774 59.0001C288.974 59.4001 290.174 59.7001 291.374 60.1001C292.374 60.4001 293.374 60.8001 294.374 61.2001C296.874 62.4001 298.374 64.4001 298.374 67.2001C298.474 69.9001 297.374 72.0001 295.074 73.4001C293.474 74.4001 291.774 74.9001 289.974 75.0001C285.374 75.4001 281.274 74.2001 277.474 71.6001C276.774 71.1001 276.774 71.1001 277.174 70.3001C277.774 69.2001 278.274 68.0001 278.874 66.9001C279.174 67.0001 279.174 66.7001 279.474 66.5001Z" fill="#CCC8B2"/>
<path d="M172.074 66.6C172.374 66.6 172.474 66.8 172.674 67C174.874 68.7 177.274 69.7 179.974 70.2C180.874 70.4 181.774 70.3 182.674 70.1C182.974 70 183.274 69.9 183.574 69.8C184.674 69.1 184.874 67.8 183.974 66.8C183.574 66.4 183.174 66.1 182.674 65.9C181.774 65.5 180.774 65.2 179.774 65C178.274 64.6 176.674 64.2 175.274 63.5C174.674 63.2 174.074 62.9 173.574 62.5C170.474 60.2 170.474 54.9 173.574 52.3C175.074 51 176.874 50.4 178.774 50.1C182.974 49.5 186.874 50.3 190.574 52.3C190.674 52.4 190.874 52.5 190.974 52.5C191.174 52.6 191.274 52.8 191.174 53C190.474 54.4 189.774 55.9 189.074 57.4C188.874 57.8 188.674 57.6 188.474 57.5C187.174 56.8 185.874 56.2 184.474 55.8C183.474 55.5 182.474 55.3 181.474 55.2C180.774 55.1 180.174 55.1 179.574 55.3C178.874 55.5 178.374 55.8 178.174 56.5C177.974 57.3 178.274 57.9 178.874 58.5C179.274 58.8 179.674 59 180.174 59.2C181.674 59.8 183.174 60.1 184.674 60.6C185.774 61 186.974 61.4 187.974 62C192.674 64.4 192.574 71 188.574 73.7C186.874 74.9 184.874 75.5 182.874 75.6C178.374 75.9 174.374 74.8 170.674 72.3C170.574 72.2 170.474 72.2 170.374 72.1C169.874 71.7 169.874 71.7 170.174 71.2C170.674 69.4 171.374 68 172.074 66.6Z" fill="#CCC8B2"/>
<path d="M144.874 62.6C144.874 58.7 144.874 54.9 144.874 51C144.874 50.8 144.874 50.6 144.874 50.5C144.874 50.1 145.074 50 145.474 50C149.174 50 152.974 50 156.674 50C158.174 50 159.674 50.3 161.074 50.8C164.074 52 165.674 54.2 166.074 57.3C166.274 58.7 166.174 60.1 165.874 61.5C165.074 64.8 162.774 66.8 159.574 67.6C158.274 67.9 156.974 68 155.674 68C154.474 68 153.374 68 152.174 68C151.474 68 151.474 68 151.474 68.7C151.474 70.5 151.474 72.3 151.474 74.2C151.474 74.4 151.474 74.6 151.474 74.7C151.474 75 151.374 75.1 151.074 75.1C150.974 75.1 150.774 75.1 150.674 75.1C149.074 75.1 147.474 75.1 145.874 75.1C145.074 75.1 145.074 75.2 145.074 74.2C145.074 71.5 145.074 68.8 145.074 66.1C144.874 65 144.874 63.8 144.874 62.6ZM151.274 59C151.274 60.2 151.274 61.3 151.274 62.5C151.274 62.8 151.274 63 151.674 63C153.274 63 154.874 63.1 156.474 62.9C157.974 62.7 159.174 62 159.674 60.5C159.974 59.7 159.974 58.9 159.774 58C159.474 56.4 158.574 55.5 157.074 55.1C156.674 55 156.274 54.9 155.874 54.9C154.474 54.9 153.174 54.9 151.774 54.9C151.174 54.9 151.174 54.9 151.174 55.5C151.274 56.7 151.274 57.9 151.274 59Z" fill="#CCC8B2"/>
<path d="M105.974 58.3001C105.274 57.5001 104.374 56.7001 103.474 56.2001C101.074 54.9001 98.6741 54.7001 96.2741 56.0001C93.6741 57.5001 92.5741 59.9001 92.6741 62.8001C92.7741 65.0001 93.5741 66.9001 95.2741 68.3001C97.6741 70.2001 100.274 70.3001 102.974 69.0001C103.974 68.5001 104.874 68.0001 105.574 67.2001C105.874 66.9001 106.074 66.9001 106.274 67.2001C107.274 68.3001 108.274 69.4001 109.374 70.4001C109.674 70.7001 109.674 70.8001 109.374 71.1001C108.374 72.1001 107.274 72.9001 106.074 73.5001C101.074 76.1001 96.1741 76.1001 91.4741 72.9001C88.1741 70.7001 86.4741 67.5001 86.0741 63.6001C85.7741 60.6001 86.3741 57.8001 88.0741 55.3001C90.0741 52.4001 92.7741 50.7001 96.1741 50.0001C100.974 49.0001 105.174 50.1001 108.974 53.2001C109.874 54.0001 109.674 53.8001 109.074 54.6001C108.274 55.6001 107.374 56.6001 106.474 57.6001C106.474 58.0001 106.274 58.2001 105.974 58.3001Z" fill="#CCC8B2"/>
<path d="M88.974 27.4889C89.574 27.9889 90.074 28.4889 90.574 28.8889C91.574 29.5889 92.674 30.1889 93.974 30.2889C95.574 30.3889 96.574 29.6889 96.874 28.0889C96.974 27.6889 96.974 27.3889 96.974 26.9889C96.974 23.3889 96.974 19.7889 96.974 16.1889C96.974 16.0889 96.974 15.8889 96.974 15.7889C96.974 15.5889 96.874 15.4889 96.674 15.4889C96.474 15.4889 96.274 15.4889 96.174 15.4889C93.874 15.4889 91.474 15.4889 89.174 15.4889C88.374 15.4889 88.374 15.4889 88.374 14.6889C88.374 13.3889 88.374 12.0889 88.374 10.8889C88.374 10.2889 88.374 10.2889 88.974 10.2889C90.874 10.2889 92.674 10.2889 94.574 10.2889C97.274 10.2889 99.974 10.2889 102.674 10.2889C103.474 10.2889 103.474 10.2889 103.474 10.9889C103.474 16.3889 103.474 21.8889 103.474 27.2889C103.474 28.2889 103.374 29.1889 103.074 30.1889C102.274 33.0889 100.374 34.7889 97.474 35.4889C93.274 36.3889 89.574 35.3889 86.474 32.1889C86.074 31.7889 86.074 31.7889 86.374 31.1889C87.174 30.0889 87.874 28.9889 88.674 27.8889C88.774 27.7889 88.874 27.6889 88.974 27.4889Z" fill="#CCC8B2"/>
<path d="M226.474 62.6001C226.474 58.8001 226.474 55.0001 226.474 51.2001C226.474 51.0001 226.474 50.8001 226.474 50.7001C226.474 50.1001 226.474 50.1001 227.074 50.1001C228.874 50.1001 230.574 50.1001 232.374 50.1001C232.774 50.1001 232.974 50.2001 232.974 50.6001C232.974 50.8001 232.974 51.0001 232.974 51.2001C232.974 57.1001 232.974 63.0001 232.974 68.9001C232.974 69.9001 232.874 69.8001 233.874 69.8001C236.774 69.8001 239.774 69.8001 242.674 69.8001C242.874 69.8001 243.074 69.8001 243.174 69.8001C243.474 69.8001 243.574 69.9001 243.574 70.2001C243.574 71.7001 243.574 73.2001 243.574 74.7001C243.574 75.0001 243.474 75.1001 243.174 75.1001C242.974 75.1001 242.874 75.1001 242.674 75.1001C237.574 75.1001 232.474 75.1001 227.374 75.1001C226.374 75.1001 226.474 75.3001 226.474 74.2001C226.474 73.3001 226.474 72.3001 226.474 71.4001C226.474 68.5001 226.474 65.5001 226.474 62.6001Z" fill="#CCC8B2"/>
<path d="M170.374 22.7889C170.374 18.9889 170.374 15.1889 170.374 11.3889C170.374 11.1889 170.374 10.9889 170.374 10.8889C170.374 10.2889 170.374 10.2889 170.874 10.2889C172.674 10.2889 174.374 10.2889 176.174 10.2889C176.574 10.2889 176.774 10.3889 176.774 10.7889C176.774 10.9889 176.774 11.0889 176.774 11.2889C176.774 19.0889 176.774 26.7889 176.774 34.5889C176.774 35.5889 176.874 35.4889 175.874 35.4889C174.274 35.4889 172.774 35.4889 171.174 35.4889C170.374 35.4889 170.374 35.5889 170.374 34.6889C170.374 30.7889 170.374 26.7889 170.374 22.7889Z" fill="#CCC8B2"/>
<path d="M132.474 43.7C132.374 44 132.174 44.1 131.974 44.3C130.774 45.4 129.574 46.4 128.374 47.5C128.074 47.8 127.774 47.9 127.274 47.9C125.974 47.9 124.674 47.9 123.374 47.9C123.274 47.6 123.374 47.5 123.474 47.4C124.574 45.7 125.574 44.1 126.674 42.4C126.874 42 127.074 41.9 127.574 42.1C129.174 42.5 130.874 43.1 132.474 43.7Z" fill="#CCC8B2"/>
</svg>
