<svg width="203" height="203" viewBox="0 0 203 203" fill="none" xmlns="http://www.w3.org/2000/svg">
<path d="M202.016 101.108C202.916 153.808 159.716 201.808 101.216 202.208C46.216 202.608 0.916038 157.208 0.0160377 102.908C-0.983962 46.7077 44.916 0.607672 99.816 0.00767214C156.916 -0.692328 203.016 46.6077 202.016 101.108Z" fill="#E4AB23"/>
<path d="M104.2 74.1C115.1 74.1 125.9 74.1 136.8 74.1C142.1 74.1 143.7 75.7 143.7 81C143.7 98.8 143.8 116.7 143.7 134.5C143.6 146.1 136.2 153.3 124.6 153.3C111.1 153.3 97.6 153.2 84.1 153.3C75 153.4 70.5841 151.892 67.1841 143.192C66.8601 142.363 65.7483 139.692 65.5 139C63.8159 134.308 62.8 134.2 59.1 134.2C45.7 134.2 39 127.3 39 113.8C39 101.7 43.8 95 54.1 93.1C56.2 92.7 58.4 92.6 60.4 92.9C63.9 93.3 64.7 91.9 64.4 88.7C64.1 85.9 64.3 83 64.3 80.1C64.4 75.6 65.9 74 70.4 74C81.7 74.1 93 74.1 104.2 74.1Z" fill="#24201D"/>
<path d="M128.216 59.5076C128.216 61.0076 128.216 62.5076 128.216 64.0076C128.216 70.8076 126.816 71.8076 119.916 70.5076C118.316 70.2076 118.216 69.4076 118.216 68.2076C118.216 62.2076 118.216 56.3076 118.216 50.3076C118.216 48.5076 119.116 48.1076 120.716 48.0076C128.216 47.6076 128.216 47.5076 128.216 55.0076C128.216 56.6076 128.216 58.1076 128.216 59.5076Z" fill="#24201D"/>
<path d="M90.2161 59.5076C90.2161 61.3076 90.3161 63.0076 90.2161 64.7076C90.1161 66.5076 91.1161 69.2076 89.6161 70.0076C87.3161 71.3076 84.3161 70.5076 81.5161 70.4076C80.0161 70.3076 80.4161 69.0076 80.4161 68.1076C80.4161 62.2076 80.4161 56.4076 80.4161 50.5076C80.4161 48.8076 80.8161 48.1076 82.7161 48.0076C90.2161 47.5076 90.2161 47.4076 90.2161 55.0076C90.2161 56.5076 90.2161 58.0076 90.2161 59.5076Z" fill="#24201D"/>
<path d="M109.116 59.2076C109.116 60.8076 109.116 62.4076 109.116 64.1076C109.116 70.6076 107.116 72.1076 100.716 70.6076C99.1161 70.2076 99.2161 69.2076 99.2161 68.1076C99.2161 62.2076 99.2161 56.4076 99.2161 50.5076C99.2161 48.7076 99.8161 48.2076 101.616 48.1076C109.116 47.6076 109.116 47.5076 109.116 55.1076C109.116 56.4076 109.116 57.8076 109.116 59.2076Z" fill="#24201D"/>
<path d="M104.416 83.1076C113.316 83.1076 122.216 83.2076 131.016 83.0076C133.416 83.0076 134.216 83.6076 134.216 86.1076C134.116 101.708 134.216 117.308 134.116 132.908C134.116 140.108 131.216 142.808 124.016 142.808C110.916 142.808 97.8159 142.808 84.6159 142.808C77.2159 142.808 74.4159 139.908 74.4159 132.708C74.4159 117.308 74.5159 102.008 74.3159 86.6076C74.3159 83.6076 75.2159 82.9076 78.1159 82.9076C86.9159 83.3076 95.6159 83.1076 104.416 83.1076Z" fill="#E4AB23"/>
<path d="M64.7159 113.108C64.7159 115.808 64.6159 118.608 64.7159 121.308C64.8159 123.208 64.016 124.008 62.116 123.908C60.216 123.808 58.4159 123.808 56.5159 123.708C55.8159 123.708 55.0159 123.508 54.3159 123.308C49.9159 121.708 48.216 117.108 49.116 109.508C49.616 105.208 52.4159 102.708 56.8159 102.408C64.6159 101.808 64.616 101.808 64.616 109.408C64.716 110.608 64.7159 111.908 64.7159 113.108Z" fill="#E4AB23"/>
</svg>
