<?xml version="1.0" encoding="utf-8"?>
<!-- Generator: Adobe Illustrator 23.1.0, SVG Export Plug-In . SVG Version: 6.00 Build 0)  -->
<svg version="1.1" id="Camada_1" xmlns="http://www.w3.org/2000/svg" xmlns:xlink="http://www.w3.org/1999/xlink" x="0px" y="0px"
	 viewBox="0 0 750 234.36" style="enable-background:new 0 0 750 234.36;" xml:space="preserve">
<style type="text/css">
	.st0{fill:#341B07;}
	.st1{fill:#FEFEFE;}
	.st2{fill:#E4AB23;}
	.st3{fill:#CCC9B3;}
	.st4{fill:#E2AA23;}
	.st5{fill:#E3AA23;}
	.st6{fill:#E1A922;}
	.st7{fill:#CBC8B2;}
	.st8{fill:#DDA522;}
	.st9{fill:#DDA622;}
	.st10{fill:#361D07;}
	.st11{fill:#351C07;}
	.st12{fill:#351C08;}
	.st13{fill:#341C08;}
	.st14{fill:#3D2308;}
	.st15{fill:#3D2208;}
	.st16{fill:#4C2F0B;}
	.st17{fill:#371E07;}
	.st18{fill:#432809;}
	.st19{fill:#51330B;}
</style>
<g>
	<g>
		<path class="st0" d="M749.91-256.88c0,248.5-0.01,496.99,0.09,745.49c0,3.17-0.81,3.57-3.71,3.57
			c-247.52-0.08-495.05-0.08-742.57,0c-2.91,0-3.72-0.4-3.71-3.57C0.1,240.11,0.09-8.38,0.09-256.88c1.3-0.69,2.7-0.35,4.05-0.35
			c247.24-0.02,494.48-0.02,741.72,0C747.21-257.23,748.61-257.57,749.91-256.88z"/>
		<path class="st1" d="M749.91-256.88c-249.94,0-499.88,0-749.82,0c0.16-0.23-0.38-0.78,0.38-0.76c1,0.03,2,0.01,3,0.01
			c247.69,0,495.38,0,743.07,0.05C747.63-257.58,749.08-258.45,749.91-256.88z"/>
		<path class="st2" d="M239.33,117.62c0.9,52.68-42.29,100.68-100.77,101.06c-54.97,0.35-100.27-45.02-101.21-99.3
			C36.38,63.24,82.2,17.08,137.18,16.46C194.28,15.82,240.36,63.06,239.33,117.62z"/>
		<path class="st3" d="M426.87,65.1c0-8.23,0.08-16.45-0.05-24.68c-0.04-2.4,0.6-3.2,3.13-3.2c8.17-0.01,8.17-0.13,8.17,8.16
			c0,11.97-0.06,23.95,0.05,35.92c0.02,2.45-0.47,3.21-3.17,3.49c-5.47,0.58-8.9-1.29-11.95-5.89
			c-5.15-7.75-11.04-15.01-17.34-23.43c0,8.12,0,15.14,0,22.16c0,7.03-0.01,6.8-6.93,7.12c-3.65,0.17-4.52-0.86-4.46-4.46
			c0.24-13.09,0.17-26.19,0.04-39.29c-0.03-2.77,0.54-3.66,3.59-3.87c5.12-0.35,8.43,1.18,11.37,5.58
			c5.22,7.83,11.18,15.17,16.84,22.71C426.4,65.32,426.64,65.21,426.87,65.1z"/>
		<path class="st3" d="M488.8,56.74c0,7.92-0.2,15.85,0.09,23.77c0.13,3.56-1.04,4.34-4.36,4.22c-7.06-0.24-7.07-0.07-7.07-7.01
			c0-12.23,0.08-24.46-0.06-36.69c-0.03-2.79,0.58-3.66,3.62-3.89c5.17-0.4,8.44,1.26,11.37,5.63c5.26,7.84,11.22,15.22,17.58,23.71
			c0-2.92,0-4.83,0-6.74c0-4.74,0-9.48,0-14.23c0-9.01,0-8.97,9.15-8.27c1.61,0.12,2.13,0.6,2.13,2.19
			c-0.05,14.35-0.02,28.7-0.04,43.05c0,0.78,0.32,1.68-0.9,2.14c-3.55,1.36-10.15-0.54-12.52-3.7
			c-6.09-8.14-12.18-16.27-18.27-24.41C489.28,56.59,489.04,56.67,488.8,56.74z"/>
		<path class="st3" d="M589.3,60.69c0.08-13.7,11.16-23.99,25.76-23.9c14.55,0.09,25.5,10.54,25.45,24.27
			c-0.06,13.64-11.2,24.16-25.62,24.18C600.33,85.27,589.22,74.61,589.3,60.69z"/>
		<path class="st3" d="M578.63,61.08c0,6.99-0.05,13.98,0.03,20.97c0.02,1.83-0.39,2.58-2.46,2.67c-9.72,0.41-9.71,0.48-9.71-9.25
			c0-9.3,0-9.3-9.33-9.3c-2.62,0-5.25,0.09-7.87-0.03c-2.01-0.09-2.58,0.74-2.53,2.64c0.1,4.37-0.05,8.74,0.07,13.1
			c0.06,1.99-0.35,2.79-2.61,2.84c-9.47,0.21-9.47,0.3-9.47-9.07c0-11.73,0.05-23.46-0.04-35.2c-0.02-2.3,0.43-3.23,3.03-3.24
			c9.06-0.04,9.06-0.15,9.06,8.77c0,2.75,0.09,5.5-0.03,8.24c-0.08,1.91,0.52,2.66,2.53,2.62c4.87-0.12,9.75-0.11,14.62,0
			c1.95,0.04,2.64-0.64,2.6-2.58c-0.09-4.74,0.06-9.49-0.07-14.23c-0.06-2.13,0.67-2.73,2.78-2.79c9.4-0.28,9.4-0.35,9.4,8.87
			C578.63,51.1,578.63,56.09,578.63,61.08z"/>
		<path class="st3" d="M338.14,54.69c0-5.46,0.27-9.85-0.08-14.19c-0.33-4.12,2.48-3.67,4.49-3.08c2.58,0.76,7.41-3.21,7.59,2.94
			c0.24,8.23-0.01,16.47,0.11,24.7c0.08,5.74,3.51,9.5,8.65,9.91c6.54,0.51,10.61-3.32,10.74-10.44c0.14-7.98,0.14-15.97-0.02-23.95
			c-0.05-2.59,0.62-3.38,3.29-3.36c8.77,0.06,8.77-0.06,8.77,8.72c0,6.61,0.17,13.23-0.08,19.83c-0.44,11.59-7.84,18.46-20.5,19.39
			c-11.18,0.83-20.43-5.44-22.5-15.51C337.51,64.36,338.38,58.94,338.14,54.69z"/>
		<path class="st3" d="M503.1,132.64c0-4.49,0.09-8.98-0.04-13.47c-0.06-2,0.69-2.46,2.59-2.53c9.51-0.35,9.51-0.41,9.51,9.08
			c0,6.11-0.06,12.23,0.03,18.34c0.1,6.49,3.81,10.34,9.77,10.35c5.79,0.01,9.47-3.65,9.62-10.08c0.19-8.23,0.13-16.47,0.02-24.7
			c-0.03-2.22,0.49-2.98,2.88-3.01c9.17-0.1,9.18-0.2,9.17,9.06c0,6.49,0.17,12.98-0.08,19.46c-0.44,11.6-7.8,18.46-20.48,19.42
			c-11.29,0.85-20.96-5.63-22.51-15.86c-0.79-5.24-0.14-10.7-0.14-16.05C503.32,132.64,503.21,132.64,503.1,132.64z"/>
		<path class="st3" d="M649.02,164.05c-1.78,0-3.04-0.15-4.25,0.03c-5.72,0.82-10.29-0.02-11.21-6.96
			c-0.18-1.39-1.19-1.93-2.71-1.91c-5.49,0.09-10.99,0.12-16.48-0.01c-1.89-0.04-2.88,0.75-3.14,2.39
			c-0.94,5.97-4.66,7.41-10.06,6.5c-1.43-0.24-2.93-0.04-4.84-0.04c1.15-2.78,2.12-5.18,3.14-7.55
			c5.22-12.12,10.54-24.2,15.64-36.37c1.06-2.54,2.29-3.58,5.15-3.53c8.89,0.17,8.9,0.03,12.4,8.31
			c4.99,11.81,9.97,23.63,14.94,35.45C648.02,161.38,648.39,162.41,649.02,164.05z"/>
		<path class="st3" d="M396.85,164.05c-3.47,0-6.96-0.14-10.43,0.05c-2.38,0.13-2.5-1.63-3.07-3.03c-2.35-5.82-2.32-5.83-8.64-5.83
			c-3.99,0-7.99,0.09-11.98-0.04c-1.81-0.06-2.98,0.58-3.24,2.29c-0.95,6.21-4.92,7.17-10.37,6.65c-4.59-0.43-4.62-0.09-2.84-4.22
			c5.77-13.36,11.6-26.7,17.26-40.11c0.94-2.24,1.95-3.24,4.57-3.21c9.27,0.1,9.26-0.01,12.9,8.64
			c4.88,11.58,9.79,23.14,14.64,34.73C396.18,161.2,397.06,162.35,396.85,164.05z"/>
		<path class="st3" d="M457.07,147.79c3.82,2.6,7.61,4.95,12.02,6.09c2.58,0.67,5.16,0.96,7.78,0.45c1.68-0.33,3.08-1.14,3.44-2.99
			c0.39-2-0.58-3.5-2.27-4.28c-2.13-0.99-4.41-1.68-6.64-2.46c-2.82-0.99-5.72-1.77-8.46-2.94c-4.49-1.92-7.2-5.35-7.5-10.31
			c-0.3-4.99,1.64-9.04,5.85-11.82c9.02-5.95,22.91-3.31,30.38,1.09c0.9,0.53,1.3,1.11,0.69,2.1c-0.19,0.32-0.31,0.68-0.47,1.02
			c-2.99,6.68-2.99,6.68-9.7,4.16c-3.04-1.14-6.12-2.19-9.44-2.02c-2.1,0.11-4.16,0.63-4.58,3.01c-0.39,2.18,1.2,3.55,3.01,4.23
			c4.42,1.67,8.98,3,13.39,4.72c4.29,1.67,7.42,4.57,8.26,9.36c1.18,6.73-1.72,12.65-8.16,15.13c-10.88,4.19-21.06,1.92-30.6-4.27
			c-1.33-0.86-1.4-1.81-0.66-3.14C454.66,152.65,455.79,150.29,457.07,147.79z"/>
		<path class="st3" d="M658.79,147.87c4.58,3.29,9.42,6.04,15.18,6.63c4.65,0.48,7.53-0.66,7.79-3.23c0.42-4.11-2.98-4.74-5.71-5.73
			c-3.51-1.27-7.19-2.07-10.66-3.43c-4.86-1.9-8.16-5.26-8.43-10.81c-0.28-5.67,2.08-10.07,7.16-12.5
			c9.95-4.78,19.63-2.95,29.06,1.84c0.91,0.46,1.39,1.04,0.7,2.04c-0.14,0.2-0.2,0.46-0.29,0.69c-2.99,7.09-2.98,7.08-10.17,4.43
			c-2.69-0.99-5.43-1.91-8.34-1.91c-2.28,0-4.79,0.12-5.33,2.95c-0.49,2.58,1.52,3.77,3.57,4.58c2.08,0.82,4.25,1.42,6.36,2.15
			c2.35,0.81,4.77,1.49,7.02,2.53c4.93,2.26,7.84,5.97,7.88,11.63c0.04,5.56-2.48,9.59-7.32,12.07c-6.95,3.56-14.21,3.12-21.5,1.15
			c-0.84-0.23-1.66-0.54-2.47-0.85C653.43,158.38,652.95,156.89,658.79,147.87z"/>
		<path class="st3" d="M405.78,140.32c0-6.98,0.07-13.96-0.04-20.94c-0.04-2.12,0.63-2.79,2.74-2.74
			c6.86,0.15,13.73-0.04,20.58,0.22c10.39,0.4,16.5,6.61,16.49,16.38c-0.01,10.21-6.27,16.75-16.63,17.29
			c-2.74,0.14-5.5,0.24-8.23,0.06c-2.39-0.16-3.18,0.76-2.87,3c0.07,0.49,0.01,1,0.01,1.49c-0.01,9.16-0.01,9.04-9.11,9.04
			c-2.63,0-3.03-0.97-2.99-3.24C405.85,154.03,405.78,147.18,405.78,140.32z"/>
		<path class="st3" d="M295.22,140.37c0.1-9.9,5.58-18.2,14.66-22.02c9.41-3.95,21.7-1.97,28.44,4.44c1.23,1.17,1.16,1.91,0.12,3.02
			c-1.27,1.37-2.55,2.75-3.61,4.28c-1.35,1.95-2.29,2.21-4.21,0.36c-3.95-3.79-8.77-5.16-14.14-3.34
			c-7.13,2.42-10.67,10.58-7.96,18.13c2.52,7.01,9.87,10.37,17.03,7.76c1.16-0.42,2.52-0.79,3.31-1.64
			c3.24-3.45,5.34-1.92,7.83,1.07c3.26,3.92,3.45,3.76-0.7,6.74c-15.35,11.04-35.83,4.26-40.02-13.28
			C295.54,144.1,295.46,142.22,295.22,140.37z"/>
		<path class="st3" d="M326.14,54.75c0,4.36,0.04,8.73-0.01,13.09c-0.15,13.46-9.77,20.39-22.76,16.39c-1.3-0.4-2.58-0.94-3.78-1.58
			c-6.81-3.64-7.15-7.08-1.42-12.16c1.1-0.97,1.5-0.16,2.07,0.33c2.02,1.72,4.21,3.12,6.82,3.74c3.72,0.88,6.39-0.64,6.59-4.46
			c0.37-7.08,0.23-14.2,0.33-21.3c0.03-1.86-1.22-1.85-2.53-1.85c-3.74,0.01-7.49-0.08-11.23,0.04c-1.97,0.06-2.5-0.65-2.57-2.57
			c-0.25-7.2-0.32-7.2,6.86-7.2c6.24,0,12.48,0.09,18.72-0.04c2.31-0.05,3.02,0.73,2.95,3C326.03,45.03,326.14,49.89,326.14,54.75z"
			/>
		<path class="st3" d="M559.38,140.11c0-6.85,0.1-13.71-0.05-20.56c-0.05-2.32,0.67-2.91,2.94-2.93c9.16-0.1,9.15-0.19,9.15,9.02
			c0,8.47,0.08,16.95-0.05,25.42c-0.03,2.28,0.58,3.05,2.92,2.97c4.86-0.16,9.73,0.03,14.59-0.09c2.13-0.05,2.73,0.69,2.78,2.79
			c0.15,7.31,0.23,7.31-7.1,7.31c-7.36,0-14.72-0.09-22.08,0.05c-2.37,0.05-3.22-0.53-3.16-3.05
			C559.5,154.07,559.38,147.09,559.38,140.11z"/>
		<path class="st3" d="M463.75,61.45c0,6.73-0.06,13.46,0.04,20.19c0.03,2.08-0.26,3.06-2.78,3.09c-9.35,0.12-9.35,0.23-9.35-9.23
			c0-11.59,0.06-23.18-0.05-34.77c-0.02-2.41,0.35-3.53,3.19-3.52c8.95,0,8.95-0.12,8.95,8.91
			C463.75,51.23,463.75,56.34,463.75,61.45z"/>
		<path class="st2" d="M463.2,200.04c-4.34,6.86-4.34,6.86-8.53-0.12c0,2.36-0.05,3.86,0.01,5.36c0.08,1.79-0.03,3.06-2.48,3.03
			c-2.31-0.03-2.25-1.26-2.24-2.86c0.04-3.86-0.04-7.72,0.05-11.58c0.02-1.06-0.74-2.81,1.3-2.85c1.6-0.03,3.58-0.88,4.57,1.37
			c0.85,1.93,1.77,3.82,2.78,6c1.66-1.4,2.17-3.25,2.73-4.89c0.92-2.67,2.85-2.83,5.04-2.51c2.67,0.39,1.37,2.55,1.43,3.88
			c0.18,3.73,0.01,7.47,0.09,11.2c0.03,1.6-0.54,2.22-2.16,2.18c-1.53-0.03-2.73-0.11-2.61-2.13
			C463.28,204.42,463.2,202.69,463.2,200.04z"/>
		<path class="st4" d="M335.84,207.83c-4.05,1.17-6.28,0.05-7.58-3.12c-0.35-0.85-0.88-2.03-2.17-1.55c-1.07,0.39-0.66,1.53-0.6,2.3
			c0.17,2.02-0.43,2.88-2.66,2.85c-2.28-0.02-2.31-1.24-2.29-2.87c0.04-3.99,0.09-7.98-0.02-11.97c-0.05-1.95,0.66-2.69,2.61-2.56
			c1.99,0.13,4.01-0.09,5.98,0.11c3.43,0.34,6.55,4,5.07,6.81C332.12,201.75,332.86,204.7,335.84,207.83z"/>
		<path class="st2" d="M602.19,199.69c0-0.5-0.18-1.09,0.03-1.48c1.22-2.3-2.81-6.79,2.62-7.2c8.39-0.62,12.06,1.76,12.68,7.53
			c0.54,5.02-2.42,8.93-7.27,9.61C602.27,209.28,602.19,209.19,602.19,199.69z"/>
		<path class="st2" d="M543.55,207.96c-3.34,0.84-5.7,0.31-7-2.88c-0.38-0.94-0.88-2.35-2.33-1.96c-1.3,0.35-0.84,1.68-0.79,2.57
			c0.11,1.89-0.51,2.59-2.52,2.62c-2.32,0.04-2.24-1.26-2.23-2.85c0.04-3.98,0-7.96,0.03-11.95c0.01-0.83-0.28-1.8,0.61-2.4
			c2.13-1.45,10.67,0.36,12.13,2.53c1.14,1.69,1.63,4,0.55,5.29c-2.55,3.05-0.7,5.13,0.8,7.47
			C543.06,206.8,543.22,207.26,543.55,207.96z"/>
		<path class="st5" d="M378.14,190.9c4.56,0.07,8.24,4.18,8.07,9.02c-0.17,4.72-3.81,8.37-8.35,8.39c-4.64,0.02-8.23-3.86-8.19-8.84
			C369.71,194.52,373.36,190.83,378.14,190.9z"/>
		<path class="st5" d="M510.03,208.3c-4.6,0.03-8.33-3.92-8.29-8.8c0.03-4.84,3.78-8.64,8.5-8.6c4.47,0.04,8.01,3.82,8.05,8.6
			C518.33,204.44,514.74,208.27,510.03,208.3z"/>
		<path class="st5" d="M635.72,190.9c4.61,0.08,8.09,4.06,7.93,9.06c-0.15,4.76-3.74,8.36-8.31,8.34c-4.56-0.02-8.35-4.11-8.24-8.9
			C627.21,194.57,631.02,190.82,635.72,190.9z"/>
		<path class="st5" d="M305.44,202.66c-2.04-0.21-3.04-0.94-2.49-2.59c0.5-1.52,1.88-1.01,2.86-0.94c1.34,0.11,3.48-0.92,3.83,1.03
			c0.45,2.51,0.55,5.17-0.18,7.73c-0.02,0.09-0.18,0.14-0.27,0.2c-1.14,0.7-10.71-0.69-11.9-1.74c-2.99-2.62-3.9-7.31-2.12-10.93
			c2.24-4.54,8.29-6.14,12.07-3.1c0.84,0.67,2.55,1.44,1.01,2.86c-0.92,0.84-1.83,2.61-3.64,0.81c-1.47-1.46-3.26-1.36-4.5,0.39
			c-1.42,2.01-1.49,4.29-0.05,6.28C301.37,204.48,303.12,204.35,305.44,202.66z"/>
		<path class="st5" d="M404.44,203.48c-1.53-1.65-3.26-1.66-4.7-2.3c-2.38-1.05-4.03-2.59-3.54-5.42c0.48-2.75,2.22-4.39,4.99-4.79
			c1.73-0.25,3.51-0.22,5.13,0.52c1.08,0.49,3.06,0.4,2.03,2.6c-0.67,1.44-1.33,2.79-3.27,1.52c-0.3-0.19-0.71-0.23-1.07-0.32
			c-0.93-0.24-2.16-0.84-2.53,0.48c-0.31,1.11,1.03,1.13,1.78,1.44c1.03,0.42,2.11,0.75,3.13,1.2c2.34,1.02,3.4,2.83,3.05,5.37
			c-0.35,2.55-2,3.98-4.41,4.4c-2.35,0.42-4.72,0.29-6.98-0.62c-1.18-0.47-2.96-0.51-1.97-2.62c0.7-1.48,1.21-3.05,3.46-1.69
			C400.86,204.04,402.46,204.51,404.44,203.48z"/>
		<path class="st5" d="M661.95,203.39c-1.45-1.57-3.18-1.59-4.64-2.19c-2.49-1.02-3.85-2.65-3.46-5.47c0.38-2.72,2.07-4.2,4.61-4.71
			c1.85-0.36,3.75-0.29,5.51,0.51c1.06,0.48,3.08,0.32,1.95,2.56c-0.71,1.41-1.33,2.8-3.29,1.52c-0.4-0.26-0.94-0.33-1.42-0.46
			c-0.86-0.23-1.97-0.49-2.22,0.59c-0.27,1.14,1.01,1.13,1.75,1.44c0.23,0.1,0.46,0.19,0.7,0.27c4.87,1.77,6.13,3.29,5.46,6.63
			c-0.64,3.24-3.27,4.67-8.02,4.18c-1.47-0.15-2.9-0.65-4.33-1.08c-1.52-0.46-1.45-1.43-0.73-2.58c0.6-0.95,0.6-2.37,2.58-1.67
			C659.69,204.1,659.75,203.93,661.95,203.39z"/>
		<path class="st2" d="M479.1,199.64c-0.01-0.62-0.01-1.24-0.01-1.86c0-7.49,0-7.49,7.53-6.81c3.26,0.29,5.53,2.64,5.6,5.82
			c0.07,3.24-1.97,5.91-5.29,6.02c-2.64,0.09-3.56,0.94-3.18,3.46c0.27,1.77-0.83,2-2.27,1.98c-1.37-0.02-2.46-0.08-2.39-1.92
			C479.17,204.11,479.11,201.88,479.1,199.64z"/>
		<path class="st5" d="M358.22,208.21c-1.49,0.14-2.31-0.16-2.98-1.64c-1.17-2.58-4.47-2.61-5.53,0c-1.1,2.71-3.27,1.91-4.64,1.45
			c-1.65-0.56-0.05-2.11,0.27-3.08c1.34-4.01,2.91-7.94,4.37-11.9c0.45-1.22,0.95-2.13,2.58-2.14c1.68-0.01,2.45,0.66,2.97,2.14
			c1.5,4.22,3.04,8.42,4.68,12.59C360.73,207.63,360.63,208.73,358.22,208.21z"/>
		<path class="st5" d="M589.81,208.22c-1.37,0.12-2.2-0.16-2.87-1.65c-1.18-2.59-4.48-2.63-5.53-0.02c-1.1,2.71-3.26,1.92-4.64,1.46
			c-1.67-0.56-0.06-2.11,0.26-3.07c1.34-4.01,2.93-7.93,4.36-11.91c0.52-1.46,1.28-2.17,2.97-2.14c1.62,0.02,2.13,0.9,2.58,2.13
			c1.58,4.32,3.06,8.68,4.82,12.93C592.81,208.48,591.41,208.33,589.81,208.22z"/>
		<path class="st6" d="M560.17,190.95c1.74,0,3.49,0.04,5.23-0.01c1.4-0.05,2.05,0.5,2.04,1.95c-0.01,1.35-0.45,2.26-1.92,2.06
			c-2.87-0.39-3.28,1.15-3.14,3.51c0.15,2.48-0.05,4.98,0.06,7.46c0.08,1.77-0.55,2.4-2.35,2.38c-1.71-0.02-2.51-0.5-2.45-2.32
			c0.09-2.61-0.05-5.22,0.04-7.83c0.07-2.03-0.28-3.48-2.79-3.18c-1.48,0.17-2.28-0.32-2.29-2.04c-0.01-1.8,0.93-2.02,2.35-1.98
			C556.68,190.98,558.43,190.95,560.17,190.95z"/>
		<path class="st7" d="M382.61,104.76c-4.89,4.89-9.13,9.95-16.99,7.05c1.91-3.08,3.98-6.35,5.99-9.66c0.6-0.98,1.27-0.86,2.2-0.51
			C376.58,102.67,379.38,103.62,382.61,104.76z"/>
		<path class="st8" d="M438.69,199.76c0,1.87-0.08,3.73,0.02,5.59c0.1,1.86-0.15,2.98-2.53,2.98c-2.49,0-2.46-1.36-2.44-3.1
			c0.04-3.98,0.07-7.96-0.01-11.94c-0.03-1.75,0.6-2.39,2.39-2.41c1.89-0.02,2.73,0.53,2.6,2.53
			C438.58,195.53,438.69,197.65,438.69,199.76z"/>
		<path class="st9" d="M353.41,189.56c-1.08-0.08-1.98-1.21-3.15-0.6c-0.88,0.45-1.78,1.17-2.67,0.31
			c-0.47-0.46,0.04-1.15,0.38-1.64c0.74-1.06,1.68-2,3.05-1.62c1.59,0.43,3.07,1.64,4.67-0.01c0.19-0.2,1.06-0.05,1.3,0.21
			c0.22,0.25,0.13,0.94-0.05,1.32C356.24,188.98,355.15,189.86,353.41,189.56z"/>
		<path class="st0" d="M141.84,89.9c10.86,0,21.73-0.02,32.59,0.01c5.31,0.01,6.92,1.61,6.92,6.95c0.03,17.84,0.07,35.67-0.01,53.51
			c-0.05,11.58-7.48,18.81-19.1,18.81c-13.49,0-26.97-0.1-40.45,0.04c-9.11,0.1-15.64-3.49-19.02-12.17
			c-0.26-0.67-0.81-1.41-0.7-2.03c0.82-4.55-1.63-4.85-5.31-4.85c-13.42,0-20.11-6.95-20.11-20.43c0-12.12,4.78-18.78,15.07-20.71
			c2.06-0.39,4.26-0.5,6.33-0.24c3.47,0.43,4.33-1.01,4.03-4.19c-0.26-2.84-0.08-5.73-0.05-8.6c0.05-4.47,1.6-6.07,6.11-6.09
			C119.36,89.87,130.6,89.9,141.84,89.9z"/>
		<path class="st10" d="M165.58,76.04c0,1.49,0,2.98,0,4.47c0,6.75-1.4,7.79-8.31,6.54c-1.55-0.28-1.7-1.12-1.7-2.32
			c0.01-5.96,0.03-11.93-0.01-17.89c-0.01-1.82,0.86-2.22,2.53-2.32c7.5-0.45,7.5-0.5,7.5,7.04
			C165.58,73.06,165.58,74.55,165.58,76.04z"/>
		<path class="st0" d="M127.58,76c0,1.75,0.09,3.5-0.02,5.24c-0.12,1.83,0.94,4.48-0.55,5.3c-2.34,1.29-5.35,0.48-8.07,0.38
			c-1.48-0.05-1.14-1.4-1.14-2.32c-0.03-5.86,0.02-11.73-0.04-17.59c-0.02-1.69,0.45-2.37,2.3-2.49c7.53-0.49,7.52-0.57,7.52,6.98
			C127.58,73.01,127.58,74.5,127.58,76z"/>
		<path class="st11" d="M146.46,75.69c0,1.62,0,3.24,0,4.86c0,6.48-1.98,7.96-8.35,6.49c-1.63-0.38-1.47-1.41-1.47-2.5
			c-0.01-5.86,0.04-11.71-0.03-17.57c-0.02-1.75,0.6-2.32,2.37-2.44c7.49-0.51,7.48-0.57,7.49,7.04
			C146.46,72.94,146.46,74.31,146.46,75.69z"/>
		<path class="st0" d="M614.94,75c-7.44-0.02-13.47-6.39-13.4-14.16c0.07-7.83,6.11-13.93,13.69-13.82
			c7.37,0.11,13.06,6.33,12.92,14.11C628.01,69,622.28,75.02,614.94,75z"/>
		<path class="st12" d="M629.32,146.12c-4.35,0-8.09,0.01-11.83-0.01c-0.47,0-0.93-0.11-1.75-0.21c2.2-5.56,4.32-10.93,6.8-17.22
			C624.98,134.94,627.05,140.28,629.32,146.12z"/>
		<path class="st12" d="M364.01,145.86c2.24-5.68,4.41-11.17,6.8-17.22c2.33,6.04,4.42,11.46,6.65,17.22
			C372.87,145.86,368.64,145.86,364.01,145.86z"/>
		<path class="st13" d="M417.82,133.73c0-8.23,0-8.23,8.22-7.67c5.57,0.38,8.24,2.88,8.18,7.65c-0.06,4.63-2.64,7.04-7.98,7.45
			c-0.12,0.01-0.25,0.02-0.37,0.03C417.82,141.7,417.82,141.7,417.82,133.73z"/>
		<path class="st14" d="M329.44,196.95c0.02,1.35-0.87,1.73-2.14,1.74c-1.13,0.01-1.86-0.29-1.86-1.63c0-1.25,0.19-2.2,1.76-2.1
			C328.44,195.03,329.34,195.44,329.44,196.95z"/>
		<path class="st15" d="M606.59,199.45c0.87-1.67-1.05-4.51,2.28-4.39c2.69,0.09,3.92,1.92,3.86,4.57
			c-0.05,2.41-0.98,4.25-3.64,4.31C605.09,204.03,607.86,200.69,606.59,199.45z"/>
		<path class="st16" d="M534.9,198.74c-1.12,0.07-1.61-0.69-1.55-2.07c0.07-1.54,1.01-1.84,2.26-1.74c1.29,0.1,2.12,0.75,2.04,2.13
			C537.57,198.56,536.44,198.72,534.9,198.74z"/>
		<path class="st17" d="M381.35,199.61c-0.25,2.34-0.81,4.53-3.6,4.4c-2.71-0.12-3.39-2.33-3.33-4.56c0.06-2.25,0.89-4.42,3.59-4.33
			C380.73,195.22,381.18,197.47,381.35,199.61z"/>
		<path class="st17" d="M513.61,199.77c-0.41,2.15-0.9,4.4-3.72,4.24c-2.76-0.16-3.3-2.39-3.25-4.61c0.05-2.27,0.85-4.45,3.59-4.28
			C512.88,195.28,513.4,197.52,513.61,199.77z"/>
		<path class="st10" d="M632.06,199.34c0.1-2.2,0.86-4.31,3.52-4.2c2.58,0.11,3.41,2.22,3.33,4.55c-0.08,2.27-0.81,4.41-3.54,4.31
			C632.67,203.9,632.07,201.78,632.06,199.34z"/>
		<path class="st18" d="M487.47,196.93c0.03,1.25-0.7,1.68-1.83,1.76c-1.42,0.11-1.96-0.55-1.91-1.93c0.04-1.13,0.34-1.9,1.66-1.82
			C486.64,195.03,487.47,195.55,487.47,196.93z"/>
		<path class="st19" d="M352.4,197.34c0.92,1.26,1.67,2.57,1.07,3.96c-0.26,0.59-1.6,0.6-1.96,0.07
			C350.54,199.93,351.87,198.69,352.4,197.34z"/>
		<path class="st19" d="M584.07,197.33c0.85,1.34,1.78,2.62,1.03,4.01c-0.3,0.55-1.58,0.57-1.97-0.02
			C582.18,199.85,583.73,198.71,584.07,197.33z"/>
		<path class="st2" d="M141.73,99.64c8.87,0,17.75,0.08,26.61-0.05c2.42-0.04,3.23,0.62,3.21,3.11c-0.1,15.6,0,31.2-0.08,46.81
			c-0.04,7.2-2.89,9.92-10.07,9.93c-13.12,0.02-26.24,0.02-39.36,0c-7.37-0.01-10.23-2.88-10.24-10.15
			c-0.01-15.35,0.08-30.71-0.09-46.06c-0.03-3.04,0.91-3.71,3.77-3.66C124.24,99.75,132.99,99.64,141.73,99.64z"/>
		<path class="st2" d="M102.01,129.61c0,2.73-0.09,5.47,0.03,8.2c0.08,1.95-0.67,2.71-2.59,2.59c-1.86-0.12-3.73-0.06-5.59-0.16
			c-0.74-0.04-1.49-0.2-2.18-0.44c-4.39-1.56-6.12-6.24-5.16-13.83c0.54-4.26,3.25-6.76,7.74-7.12c7.77-0.63,7.77-0.63,7.77,7.03
			C102.01,127.12,102.01,128.37,102.01,129.61z"/>
	</g>
</g>
</svg>
